<svg width="95" height="38" viewBox="0 0 95 38" fill="none" xmlns="http://www.w3.org/2000/svg">
<path d="M13.6221 24.5723V28H4.27832V24.5723H13.6221ZM5.86523 9.51562V28H1.40918V9.51562H5.86523ZM22.4326 24.5469V18.8848C22.4326 18.4954 22.3776 18.1611 22.2676 17.8818C22.1576 17.6025 21.984 17.3867 21.7471 17.2344C21.5101 17.0736 21.1927 16.9932 20.7949 16.9932C20.4733 16.9932 20.1982 17.0482 19.9697 17.1582C19.7412 17.2682 19.5677 17.4333 19.4492 17.6533C19.3307 17.8734 19.2715 18.1527 19.2715 18.4912H14.9932C14.9932 17.8564 15.1328 17.2682 15.4121 16.7266C15.6999 16.1764 16.1061 15.6982 16.6309 15.292C17.1641 14.8857 17.7988 14.5726 18.5352 14.3525C19.2799 14.124 20.1094 14.0098 21.0234 14.0098C22.1152 14.0098 23.0885 14.1917 23.9434 14.5557C24.8066 14.9196 25.488 15.4655 25.9873 16.1934C26.4867 16.9128 26.7363 17.8184 26.7363 18.9102V24.5342C26.7363 25.4313 26.7871 26.1126 26.8887 26.5781C26.9902 27.0352 27.1341 27.4372 27.3203 27.7842V28H23.0293C22.8262 27.5768 22.6738 27.0605 22.5723 26.4512C22.4792 25.8333 22.4326 25.1986 22.4326 24.5469ZM22.9531 19.6084L22.9785 21.8936H21.0869C20.6891 21.8936 20.3506 21.9486 20.0713 22.0586C19.8005 22.1686 19.5804 22.321 19.4111 22.5156C19.2503 22.7018 19.1318 22.9134 19.0557 23.1504C18.988 23.3874 18.9541 23.637 18.9541 23.8994C18.9541 24.1533 19.0133 24.3818 19.1318 24.585C19.2588 24.7796 19.4281 24.932 19.6396 25.042C19.8512 25.152 20.0882 25.207 20.3506 25.207C20.8245 25.207 21.2266 25.1182 21.5566 24.9404C21.8952 24.7542 22.1533 24.5299 22.3311 24.2676C22.5088 24.0052 22.5977 23.7598 22.5977 23.5312L23.5371 25.2832C23.3678 25.6217 23.1732 25.9645 22.9531 26.3115C22.7415 26.6585 22.4749 26.9801 22.1533 27.2764C21.8402 27.5641 21.4551 27.8011 20.998 27.9873C20.541 28.165 19.9867 28.2539 19.335 28.2539C18.4886 28.2539 17.71 28.0804 16.999 27.7334C16.2965 27.3864 15.7337 26.904 15.3105 26.2861C14.8874 25.6598 14.6758 24.9404 14.6758 24.1279C14.6758 23.417 14.8027 22.7822 15.0566 22.2236C15.319 21.665 15.7126 21.1911 16.2373 20.8018C16.762 20.4124 17.4307 20.1162 18.2432 19.9131C19.0557 19.71 20.012 19.6084 21.1123 19.6084H22.9531ZM33.3125 17.1963V28H29.0342V14.2637H33.0459L33.3125 17.1963ZM32.8047 20.6621L31.8018 20.6875C31.8018 19.638 31.9287 18.7028 32.1826 17.8818C32.4365 17.0524 32.7962 16.3499 33.2617 15.7744C33.7272 15.1989 34.2816 14.763 34.9248 14.4668C35.5765 14.1621 36.3001 14.0098 37.0957 14.0098C37.7305 14.0098 38.3102 14.1029 38.835 14.2891C39.3682 14.4753 39.8252 14.7757 40.2061 15.1904C40.5954 15.6051 40.8916 16.1553 41.0947 16.8408C41.3063 17.5179 41.4121 18.3558 41.4121 19.3545V28H37.1084V19.3418C37.1084 18.7917 37.0322 18.3727 36.8799 18.085C36.7275 17.7887 36.5075 17.5856 36.2197 17.4756C35.932 17.3656 35.5807 17.3105 35.166 17.3105C34.7259 17.3105 34.3535 17.3952 34.0488 17.5645C33.7441 17.7337 33.4987 17.9707 33.3125 18.2754C33.1348 18.5716 33.0036 18.9229 32.9189 19.3291C32.8428 19.7354 32.8047 20.1797 32.8047 20.6621ZM51.6826 24.8516V8.5H55.9863V28H52.127L51.6826 24.8516ZM43.2529 21.2969V21.0303C43.2529 19.9893 43.3672 19.0413 43.5957 18.1865C43.8242 17.3232 44.1628 16.5827 44.6113 15.9648C45.0599 15.3385 45.6185 14.8561 46.2871 14.5176C46.9557 14.179 47.7259 14.0098 48.5977 14.0098C49.3763 14.0098 50.0576 14.1917 50.6416 14.5557C51.2256 14.9111 51.7249 15.4105 52.1396 16.0537C52.5544 16.6969 52.8929 17.4502 53.1553 18.3135C53.4176 19.1683 53.6165 20.0908 53.752 21.0811V21.3984C53.6165 22.3294 53.4176 23.2096 53.1553 24.0391C52.8929 24.86 52.5544 25.5879 52.1396 26.2227C51.7249 26.8574 51.2214 27.3568 50.6289 27.7207C50.0449 28.0762 49.3594 28.2539 48.5723 28.2539C47.7005 28.2539 46.9303 28.0804 46.2617 27.7334C45.6016 27.3864 45.0472 26.8997 44.5986 26.2734C44.1585 25.6471 43.8242 24.9108 43.5957 24.0645C43.3672 23.2181 43.2529 22.2956 43.2529 21.2969ZM47.5312 21.0303V21.2969C47.5312 21.8132 47.5651 22.2913 47.6328 22.7314C47.7005 23.1715 47.8148 23.5609 47.9756 23.8994C48.1449 24.2295 48.3649 24.4876 48.6357 24.6738C48.915 24.86 49.2578 24.9531 49.6641 24.9531C50.2142 24.9531 50.667 24.8219 51.0225 24.5596C51.3864 24.2972 51.653 23.9248 51.8223 23.4424C52 22.96 52.0762 22.3929 52.0508 21.7412V20.7383C52.0677 20.1797 52.0296 19.6888 51.9365 19.2656C51.8434 18.834 51.6953 18.4743 51.4922 18.1865C51.2975 17.8988 51.0479 17.6829 50.7432 17.5391C50.4469 17.3867 50.0957 17.3105 49.6895 17.3105C49.2917 17.3105 48.9531 17.4036 48.6738 17.5898C48.403 17.776 48.1829 18.0384 48.0137 18.377C47.8444 18.707 47.7217 19.1006 47.6455 19.5576C47.5693 20.0062 47.5312 20.4971 47.5312 21.0303ZM62.9307 14.2637V28H58.6396V14.2637H62.9307ZM58.3857 10.7217C58.3857 10.1123 58.6058 9.61296 59.0459 9.22363C59.486 8.83431 60.0573 8.63965 60.7598 8.63965C61.4622 8.63965 62.0335 8.83431 62.4736 9.22363C62.9137 9.61296 63.1338 10.1123 63.1338 10.7217C63.1338 11.3311 62.9137 11.8304 62.4736 12.2197C62.0335 12.609 61.4622 12.8037 60.7598 12.8037C60.0573 12.8037 59.486 12.609 59.0459 12.2197C58.6058 11.8304 58.3857 11.3311 58.3857 10.7217ZM69.7734 17.1963V28H65.4951V14.2637H69.5068L69.7734 17.1963ZM69.2656 20.6621L68.2627 20.6875C68.2627 19.638 68.3896 18.7028 68.6436 17.8818C68.8975 17.0524 69.2572 16.3499 69.7227 15.7744C70.1882 15.1989 70.7425 14.763 71.3857 14.4668C72.0374 14.1621 72.7611 14.0098 73.5566 14.0098C74.1914 14.0098 74.7712 14.1029 75.2959 14.2891C75.8291 14.4753 76.2861 14.7757 76.667 15.1904C77.0563 15.6051 77.3525 16.1553 77.5557 16.8408C77.7673 17.5179 77.873 18.3558 77.873 19.3545V28H73.5693V19.3418C73.5693 18.7917 73.4932 18.3727 73.3408 18.085C73.1885 17.7887 72.9684 17.5856 72.6807 17.4756C72.3929 17.3656 72.0417 17.3105 71.627 17.3105C71.1868 17.3105 70.8145 17.3952 70.5098 17.5645C70.2051 17.7337 69.9596 17.9707 69.7734 18.2754C69.5957 18.5716 69.4645 18.9229 69.3799 19.3291C69.3037 19.7354 69.2656 20.1797 69.2656 20.6621ZM88.8799 14.2637H92.7646V27.4668C92.7646 28.7363 92.4727 29.8112 91.8887 30.6914C91.3047 31.5801 90.488 32.2529 89.4385 32.71C88.3975 33.1755 87.1787 33.4082 85.7822 33.4082C85.1644 33.4082 84.5339 33.3278 83.8906 33.167C83.2474 33.0146 82.6465 32.7861 82.0879 32.4814C81.5293 32.1768 81.0596 31.8001 80.6787 31.3516L82.4688 28.8379C82.8158 29.2272 83.2516 29.5573 83.7764 29.8281C84.3011 30.1074 84.9189 30.2471 85.6299 30.2471C86.2477 30.2471 86.764 30.137 87.1787 29.917C87.6019 29.6969 87.9235 29.3753 88.1436 28.9521C88.3636 28.5374 88.4736 28.0339 88.4736 27.4414V17.5137L88.8799 14.2637ZM79.752 21.2969V21.0303C79.752 19.9893 79.8789 19.0413 80.1328 18.1865C80.3952 17.3232 80.7676 16.5827 81.25 15.9648C81.7409 15.3385 82.3333 14.8561 83.0273 14.5176C83.7214 14.179 84.5042 14.0098 85.376 14.0098C86.3154 14.0098 87.0856 14.1917 87.6865 14.5557C88.2959 14.9111 88.7826 15.4105 89.1465 16.0537C89.5189 16.6969 89.8066 17.4502 90.0098 18.3135C90.2214 19.1683 90.3991 20.0908 90.543 21.0811V21.3984C90.3991 22.3294 90.2002 23.2096 89.9463 24.0391C89.7008 24.86 89.3792 25.5879 88.9814 26.2227C88.5837 26.8574 88.0843 27.3568 87.4834 27.7207C86.891 28.0762 86.18 28.2539 85.3506 28.2539C84.4873 28.2539 83.7087 28.0804 83.0146 27.7334C82.3291 27.3864 81.7409 26.8997 81.25 26.2734C80.7676 25.6471 80.3952 24.9108 80.1328 24.0645C79.8789 23.2181 79.752 22.2956 79.752 21.2969ZM84.0303 21.0303V21.2969C84.0303 21.8132 84.0768 22.2913 84.1699 22.7314C84.2715 23.1715 84.4238 23.5609 84.627 23.8994C84.8301 24.2295 85.0798 24.4876 85.376 24.6738C85.6807 24.86 86.0361 24.9531 86.4424 24.9531C87.0602 24.9531 87.5596 24.8219 87.9404 24.5596C88.3213 24.2972 88.5964 23.9248 88.7656 23.4424C88.9349 22.96 89.0068 22.3929 88.9814 21.7412V20.7383C88.9984 20.1797 88.9603 19.6888 88.8672 19.2656C88.7741 18.834 88.626 18.4743 88.4229 18.1865C88.2282 17.8988 87.9658 17.6829 87.6357 17.5391C87.3141 17.3867 86.9248 17.3105 86.4678 17.3105C86.07 17.3105 85.7188 17.4036 85.4141 17.5898C85.1094 17.776 84.8555 18.0384 84.6523 18.377C84.4492 18.707 84.2926 19.1006 84.1826 19.5576C84.0811 20.0062 84.0303 20.4971 84.0303 21.0303Z" fill="#37447E"/>
</svg>
